<svg id="Multicolor" xmlns="http://www.w3.org/2000/svg" viewBox="0 0 100 112"><defs><style>.cls-1{fill:#e8f4fa;}.cls-2,.cls-20{fill:#fff;}.cls-10,.cls-13,.cls-16,.cls-2,.cls-20,.cls-21,.cls-23,.cls-3,.cls-6,.cls-7{stroke:#191816;}.cls-2,.cls-3{stroke-miterlimit:10;}.cls-3,.cls-6{fill:none;}.cls-10,.cls-13,.cls-16,.cls-20,.cls-21,.cls-23,.cls-3,.cls-6,.cls-7{stroke-linecap:round;}.cls-4{fill:#ffc44d;}.cls-5{fill:#ffdb94;}.cls-10,.cls-13,.cls-16,.cls-20,.cls-21,.cls-23,.cls-6,.cls-7{stroke-linejoin:round;}.cls-7{fill:#ffcebf;}.cls-8{fill:#191816;}.cls-9{fill:#ffb59e;}.cls-10{fill:#d18660;}.cls-11{fill:#ffe8e0;}.cls-12{fill:#bd704a;}.cls-13,.cls-14{fill:#614b44;}.cls-15{fill:#947063;}.cls-16{fill:#ffda8f;}.cls-17{fill:#ffbe3d;}.cls-18{fill:#525252;}.cls-19{fill:#656769;}.cls-21{fill:#ff6196;}.cls-22{fill:#ff87af;}.cls-23{fill:#ffdf3d;}.cls-24{fill:#724f3d;}.cls-25{fill:#a86c4d;}</style></defs><title>20- team-leader-leadership-1</title><g id="Background"><circle class="cls-1" cx="50" cy="56" r="40"/></g><g id="Scene"><circle class="cls-2" cx="49.55" cy="56.82" r="13.89"/><line class="cls-3" x1="39.21" y1="80.65" x2="31.49" y2="72.93"/><line class="cls-3" x1="73.48" y1="68.21" x2="65.66" y2="76.03"/><line class="cls-3" x1="61.47" y1="32.25" x2="69.34" y2="40.12"/><line class="cls-3" x1="26.29" y1="44.75" x2="34.32" y2="36.71"/><g id="_Group_" data-name="&lt;Group&gt;"><path class="cls-4" d="M85.32,55.41a8.34,8.34,0,0,1-16.67,0c0-4.61,2.35-8.23,4.74-8.91a1.16,1.16,0,0,1,1.15.29C77.13,49.4,85.32,46.15,85.32,55.41Z"/><path class="cls-5" d="M74.21,49.16c2,3.16,10.06-.22,11,7.44a7.85,7.85,0,0,0,.1-1.19c0-9.26-8.19-6-10.78-8.62a1.16,1.16,0,0,0-1.15-.29c-2.39.68-4.74,4.3-4.74,8.91a8,8,0,0,0,.1,1.21C69.26,52.29,71.84,49.16,74.21,49.16Z"/><path class="cls-6" d="M85.32,55.41a8.34,8.34,0,0,1-16.67,0c0-4.61,2.35-8.23,4.74-8.91a1.16,1.16,0,0,1,1.15.29C77.13,49.4,85.32,46.15,85.32,55.41Z"/><path class="cls-7" d="M83.94,57.49l-1.4.7-1-3.54a1.37,1.37,0,0,0-1.62-1A13.56,13.56,0,0,1,77,54a13.39,13.39,0,0,1-2.92-.34,1.37,1.37,0,0,0-1.63,1l-1,3.54-1.37-.7c-2,0-1.85,3.47.34,3.47h0a6.89,6.89,0,0,0,13.18,0h0C85.79,61,85.92,57.49,83.94,57.49Z"/><path class="cls-8" d="M74.74,56.8a.87.87,0,1,0,.87.86.87.87,0,0,0-.87-.86Z"/><path class="cls-8" d="M79.26,56.8a.87.87,0,1,0,.86.86.87.87,0,0,0-.86-.86Z"/><circle class="cls-9" cx="72.83" cy="59.58" r="0.69"/><circle class="cls-9" cx="81.17" cy="59.58" r="0.69"/><path class="cls-6" d="M75.26,61.83a3.15,3.15,0,0,0,3.48,0"/></g><path class="cls-10" d="M29.87,59.13a1.43,1.43,0,0,0-1.16-1.39v-.92a6.95,6.95,0,1,0-13.89,0v.92A1.42,1.42,0,0,0,15,60.55a6.95,6.95,0,0,0,13.6,0A1.44,1.44,0,0,0,29.87,59.13Z"/><path class="cls-11" d="M21.76,52.76a8.18,8.18,0,0,1,6.92,3.55,6.94,6.94,0,0,0-13.84,0A8.19,8.19,0,0,1,21.76,52.76Z"/><path class="cls-6" d="M29.87,59.13a1.43,1.43,0,0,0-1.16-1.39v-.92a6.95,6.95,0,1,0-13.89,0v.92A1.42,1.42,0,0,0,15,60.55a6.95,6.95,0,0,0,13.6,0A1.44,1.44,0,0,0,29.87,59.13Z"/><path class="cls-8" d="M19.16,56.82a.87.87,0,1,0,.87.86.86.86,0,0,0-.87-.86Z"/><path class="cls-8" d="M24.37,56.82a.87.87,0,1,0,.87.86.86.86,0,0,0-.87-.86Z"/><circle class="cls-12" cx="18" cy="60" r="0.87"/><circle class="cls-12" cx="25.53" cy="60" r="0.87"/><path class="cls-6" d="M20,62.08a3.13,3.13,0,0,0,3.47,0"/><path class="cls-13" d="M14.24,51.61v5.21a.58.58,0,0,0,.58.57h.58l2.31-5.78Z"/><path class="cls-14" d="M29.29,52.18a4.64,4.64,0,0,0-4.63-4.63H19.45a1.14,1.14,0,0,1-1.05-.67.85.85,0,0,0-.69-.48h-1a3.57,3.57,0,0,0-3.63,3.14,3.47,3.47,0,0,0,3.07,3.78,3.18,3.18,0,0,0,2.7,2.34H20a.22.22,0,0,0,.2-.16.2.2,0,0,0-.1-.23,2.37,2.37,0,0,1-1.06-1.41.4.4,0,0,1,.38-.52h4.73a1.17,1.17,0,0,1,.82.34l3.13,3.14h.58a.58.58,0,0,0,.58-.58Z"/><path class="cls-15" d="M24.66,47.55H19.45a1.14,1.14,0,0,1-1.05-.67.85.85,0,0,0-.69-.48h-1a3.57,3.57,0,0,0-3.63,3.14,3.72,3.72,0,0,0,.1,1.25A31,31,0,0,1,20,50.06a29.14,29.14,0,0,1,9.2,1.39A4.64,4.64,0,0,0,24.66,47.55Z"/><path class="cls-6" d="M29.29,52.18a4.64,4.64,0,0,0-4.63-4.63H19.45a1.14,1.14,0,0,1-1.05-.67.85.85,0,0,0-.69-.48h-1a3.57,3.57,0,0,0-3.63,3.14,3.47,3.47,0,0,0,3.07,3.78,3.18,3.18,0,0,0,2.7,2.34H20a.22.22,0,0,0,.2-.16.2.2,0,0,0-.1-.23,2.37,2.37,0,0,1-1.06-1.41.4.4,0,0,1,.38-.52h4.73a1.17,1.17,0,0,1,.82.34l3.13,3.14h.58a.58.58,0,0,0,.58-.58Z"/><path class="cls-16" d="M57.65,86.91a1.43,1.43,0,0,0-1.16-1.39V84.6a6.95,6.95,0,1,0-13.89,0v.92a1.42,1.42,0,0,0,.15,2.81,6.95,6.95,0,0,0,13.6,0A1.43,1.43,0,0,0,57.65,86.91Z"/><path class="cls-17" d="M46.65,87.78a.87.87,0,1,1-.87-.87A.87.87,0,0,1,46.65,87.78Z"/><path class="cls-17" d="M54.18,87.78a.87.87,0,1,1-.87-.87A.87.87,0,0,1,54.18,87.78Z"/><path class="cls-6" d="M47.81,89.86a3.13,3.13,0,0,0,3.47,0"/><path class="cls-18" d="M57.07,82.86a7.53,7.53,0,0,0-15,0v2.32a6,6,0,0,0,4-3.48C49.32,83.89,53.6,83.44,57.07,82.86Z"/><path class="cls-19" d="M49.55,78.23a7.5,7.5,0,0,1,7,4.72l.55-.09a7.53,7.53,0,0,0-15,0v2.32h0A7.53,7.53,0,0,1,49.55,78.23Z"/><path class="cls-6" d="M57.07,82.86a7.53,7.53,0,0,0-15,0v2.32a6,6,0,0,0,4-3.48C49.32,83.89,53.6,83.44,57.07,82.86Z"/><path class="cls-6" d="M44.92,80.55a3.55,3.55,0,0,0,1.15,1.15"/><path class="cls-6" d="M46,85.47a1,1,0,0,1,1.39,0"/><path class="cls-6" d="M51.58,85.47a1,1,0,0,1,1.39,0"/><circle class="cls-20" cx="36.23" cy="35.4" r="2.32"/><circle class="cls-20" cx="70.96" cy="41.77" r="2.32"/><circle class="cls-20" cx="64.02" cy="77.65" r="2.32" transform="translate(-32.22 107.08) rotate(-67.5)"/><circle class="cls-20" cx="29.87" cy="71.29" r="2.32"/><path class="cls-7" d="M57.65,30.19a1.42,1.42,0,0,0-1.16-1.39v-.93a6.95,6.95,0,0,0-13.89,0v.93a1.42,1.42,0,0,0-1.16,1.39,1.44,1.44,0,0,0,1.31,1.42,6.95,6.95,0,0,0,13.6,0A1.44,1.44,0,0,0,57.65,30.19Z"/><circle class="cls-9" cx="45.78" cy="31.06" r="0.87"/><circle class="cls-9" cx="53.31" cy="31.06" r="0.87"/><path class="cls-6" d="M47.81,33.14a3.13,3.13,0,0,0,3.47,0"/><path class="cls-21" d="M57.07,26.14a7.53,7.53,0,1,0-15,0v1.73a.58.58,0,0,0,.58.58h1.16a.58.58,0,0,0,.58-.58,5.14,5.14,0,0,1,1.56-3.69,1.18,1.18,0,0,1,1-.32,3.29,3.29,0,0,1,1.92.95,4.35,4.35,0,0,0,5.37.71,5.29,5.29,0,0,1,.55,1.81.62.62,0,0,0,.61.54h1.16a.57.57,0,0,0,.58-.57Z"/><path class="cls-22" d="M49.55,20.93A8.68,8.68,0,0,1,57,25.17a7.53,7.53,0,0,0-14.93,0A8.69,8.69,0,0,1,49.55,20.93Z"/><path class="cls-6" d="M57.07,26.14a7.53,7.53,0,1,0-15,0v1.73a.58.58,0,0,0,.58.58h1.16a.58.58,0,0,0,.58-.58,5.14,5.14,0,0,1,1.56-3.69,1.18,1.18,0,0,1,1-.32,3.29,3.29,0,0,1,1.92.95,4.35,4.35,0,0,0,5.37.71,5.29,5.29,0,0,1,.55,1.81.62.62,0,0,0,.61.54h1.16a.57.57,0,0,0,.58-.57Z"/><path class="cls-23" d="M54.17,25.52a.36.36,0,0,0,.17-.36.37.37,0,0,0-.26-.3,3.89,3.89,0,0,1-2.22-1.62"/><path class="cls-8" d="M46.94,27.87a.87.87,0,1,0,.87.87.87.87,0,0,0-.87-.87Z"/><path class="cls-8" d="M52.15,27.87a.87.87,0,1,0,.87.87.87.87,0,0,0-.87-.87Z"/><path class="cls-21" d="M49.55,18.61a7.51,7.51,0,0,1,5.31,2.2,3.11,3.11,0,0,0,.47-1.62c0-2.24-2.59-4.05-5.78-4.05S43.76,17,43.76,19.19a3,3,0,0,0,.48,1.62A7.47,7.47,0,0,1,49.55,18.61Z"/><path class="cls-7" d="M57.65,58.84a1.42,1.42,0,0,0-1.16-1.39v-.92a6.95,6.95,0,1,0-13.89,0v.92a1.42,1.42,0,0,0-1.16,1.39,1.44,1.44,0,0,0,1.31,1.42,6.95,6.95,0,0,0,13.6,0A1.44,1.44,0,0,0,57.65,58.84Z"/><path class="cls-8" d="M46.94,56.53a.87.87,0,1,0,.87.86.86.86,0,0,0-.87-.86Z"/><path class="cls-8" d="M52.15,56.53a.87.87,0,1,0,.87.86.86.86,0,0,0-.87-.86Z"/><circle class="cls-9" cx="45.78" cy="59.71" r="0.87"/><circle class="cls-9" cx="53.31" cy="59.71" r="0.87"/><line class="cls-6" x1="49.55" y1="60.58" x2="49.55" y2="61.16"/><line class="cls-6" x1="48.39" y1="60.58" x2="48.39" y2="61.16"/><line class="cls-6" x1="50.7" y1="60.58" x2="50.7" y2="61.16"/><line class="cls-6" x1="51.86" y1="61.16" x2="51.86" y2="61.74"/><line class="cls-6" x1="47.23" y1="61.16" x2="47.23" y2="61.74"/><path class="cls-6" d="M48.39,62.89h0a2.54,2.54,0,0,0,2.31,0h0"/><path class="cls-24" d="M55.7,51.05a.33.33,0,0,1-.05-.29,6,6,0,0,0-.26-3.35.1.1,0,0,0-.07-.07.09.09,0,0,0-.1,0,9.58,9.58,0,0,1-1.87.95,6.25,6.25,0,0,0-.24-2.54.12.12,0,0,0-.09-.08.17.17,0,0,0-.12,0,2.65,2.65,0,0,1-1,1c-1,.47-2.61-.16-4,0-1.63.2-2.92.95-2.92,2a1,1,0,0,0,.07.39.35.35,0,0,1-.12.38A7.52,7.52,0,0,0,42,55.37v1.08a1.16,1.16,0,0,0,.79,1.1.86.86,0,0,0,.7-.09.84.84,0,0,0,.37-.59,6.17,6.17,0,0,1,2.19-4.33.37.37,0,0,1,.47,0,1.87,1.87,0,0,0,1.27.47,2,2,0,0,0,1-.26.34.34,0,0,1,.47.12,3,3,0,0,0,2.59,1.3,3.28,3.28,0,0,0,1.85-.54.35.35,0,0,1,.47.09,5.59,5.59,0,0,1,1,3.11.82.82,0,0,0,.38.59.84.84,0,0,0,.69.09,1.16,1.16,0,0,0,.79-1.1V55.37A7.48,7.48,0,0,0,55.7,51.05Z"/><path class="cls-25" d="M55.7,51.05a.33.33,0,0,1-.05-.29,6,6,0,0,0-.26-3.35.1.1,0,0,0-.07-.07.09.09,0,0,0-.1,0,9.58,9.58,0,0,1-1.87.95,6.25,6.25,0,0,0-.24-2.54.12.12,0,0,0-.09-.08.17.17,0,0,0-.12,0,2.65,2.65,0,0,1-1,1c-1,.47-2.61-.16-4,0-1.63.2-2.92.95-2.92,2a1,1,0,0,0,.07.39.35.35,0,0,1-.12.38A7.52,7.52,0,0,0,42,55.37v.06a7.55,7.55,0,0,1,2.53-3.7.35.35,0,0,0,.11-.38,1.34,1.34,0,0,1-.07-.39c0-1.06,1.29-1.92,2.92-2,1-.12,3.07.46,4,0a2.64,2.64,0,0,0,1-1,.1.1,0,0,1,.11,0,.11.11,0,0,1,.1.08,5.89,5.89,0,0,1,.26,2,.38.38,0,0,0,.15.3.41.41,0,0,0,.34,0,9.11,9.11,0,0,0,1.35-.74.12.12,0,0,1,.1,0,.14.14,0,0,1,.08.07A6.19,6.19,0,0,1,55.32,53a.42.42,0,0,0,0,.29,7.46,7.46,0,0,1,1.37,4,1.14,1.14,0,0,0,.33-.81V55.37A7.48,7.48,0,0,0,55.7,51.05Z"/><path class="cls-6" d="M55.7,51.05a.33.33,0,0,1-.05-.29,6,6,0,0,0-.26-3.35.1.1,0,0,0-.07-.07.09.09,0,0,0-.1,0,9.58,9.58,0,0,1-1.87.95,6.25,6.25,0,0,0-.24-2.54.12.12,0,0,0-.09-.08.17.17,0,0,0-.12,0,2.65,2.65,0,0,1-1,1c-1,.47-2.61-.16-4,0-1.63.2-2.92.95-2.92,2a1,1,0,0,0,.07.39.35.35,0,0,1-.12.38A7.52,7.52,0,0,0,42,55.37v1.08a1.16,1.16,0,0,0,.79,1.1.86.86,0,0,0,.7-.09.84.84,0,0,0,.37-.59,6.17,6.17,0,0,1,2.19-4.33.37.37,0,0,1,.47,0,1.87,1.87,0,0,0,1.27.47,2,2,0,0,0,1-.26.34.34,0,0,1,.47.12,3,3,0,0,0,2.59,1.3,3.28,3.28,0,0,0,1.85-.54.35.35,0,0,1,.47.09,5.59,5.59,0,0,1,1,3.11.82.82,0,0,0,.38.59.84.84,0,0,0,.69.09,1.16,1.16,0,0,0,.79-1.1V55.37A7.48,7.48,0,0,0,55.7,51.05Z"/><path class="cls-6" d="M53.35,48.3S52.22,49,49,49"/></g></svg>