<svg id="Multicolor" xmlns="http://www.w3.org/2000/svg" viewBox="0 0 178 178"><defs><style>.cls-1{fill:#e8f4fa;}.cls-2{fill:#191816;opacity:0.15;}.cls-3{fill:#87898c;}.cls-10,.cls-4{fill:#656769;}.cls-5{fill:#bdbec0;}.cls-6{fill:none;}.cls-10,.cls-12,.cls-14,.cls-17,.cls-6,.cls-7{stroke:#191816;stroke-linecap:round;stroke-linejoin:round;}.cls-7{fill:#f0f0f0;}.cls-8{fill:#ffe500;}.cls-9{fill:#ebcb00;}.cls-11{fill:#fff2e8;}.cls-12,.cls-18{fill:#ff6242;}.cls-13,.cls-14{fill:#fff;}.cls-15{fill:#bf8256;}.cls-16{fill:#915e3a;}.cls-17{fill:#fff5e3;}.cls-19{fill:#ff866e;}.cls-20{fill:#00b8f0;}.cls-21{fill:#4acfff;}</style></defs><title>32- typewriter-paper-pen</title><g id="Background"><g id="New_Symbol_82-9" data-name="New Symbol 82"><circle class="cls-1" cx="89" cy="89" r="81"/></g></g><g id="Scene"><path class="cls-2" d="M109.05,130.54a7.73,7.73,0,0,0-9,4.87,2.59,2.59,0,0,0-1.61-1.14,2.56,2.56,0,0,0-1.94.32,7.69,7.69,0,1,0-.59,2.32,3.39,3.39,0,0,1,2-.12,3.36,3.36,0,0,1,1.69,1,7.76,7.76,0,1,0,9.5-7.21Z"/><path class="cls-2" d="M60.91,113.4a1.73,1.73,0,0,0,1-2.22L54.63,91.13,52.71,68.52a1.73,1.73,0,0,0-1.87-1.58L46,67.36l-.27-.75a1.74,1.74,0,0,0-2.21-1l-7.11,2.6L14.75,70a1.73,1.73,0,0,0-1.58,1.86l.4,4.61L9.45,78a1.73,1.73,0,0,0-1,2.21l7.13,19.56,1.65,19.39a1.73,1.73,0,0,0,1.87,1.57l4-.34,1.6,4.39a1.72,1.72,0,0,0,2.21,1l20.56-7.5,7.72-.65a1.72,1.72,0,0,0,1.57-1.87l-.07-.84Z"/><path class="cls-2" d="M140.79,71.31,73.43,61l-.89,5.85a8.66,8.66,0,1,0,13,3.86l39.88,6.11a8.52,8.52,0,0,0-1.84,4.08,8.63,8.63,0,1,0,16.12-2.71Z"/><path class="cls-2" d="M117.86,118.4l-37.51-5.74a10.35,10.35,0,0,1-8.66-11.8l1.17-7.68,58,8.89-1.18,7.67A10.35,10.35,0,0,1,117.86,118.4Z"/><path class="cls-3" d="M129.81,47.74,90.54,42a8.61,8.61,0,0,0-9.77,7.3L74.08,95.43a10.34,10.34,0,0,0,8.75,11.73l35.85,5.2a10.35,10.35,0,0,0,11.73-8.75l6.69-46.1A8.61,8.61,0,0,0,129.81,47.74Z"/><rect class="cls-4" x="101.76" y="59.53" width="4.31" height="56.92" transform="translate(1.9 178.19) rotate(-81.74)"/><path class="cls-5" d="M129.81,47.74,90.54,42a8.61,8.61,0,0,0-9.77,7.3L80,54.46a8.64,8.64,0,0,1,9.78-7.3l39.26,5.7a8.63,8.63,0,0,1,7.3,9.78l.74-5.13A8.61,8.61,0,0,0,129.81,47.74Z"/><path class="cls-6" d="M129.81,47.74,90.54,42a8.61,8.61,0,0,0-9.77,7.3L74.08,95.43a10.34,10.34,0,0,0,8.75,11.73l35.85,5.2a10.35,10.35,0,0,0,11.73-8.75l6.69-46.1A8.61,8.61,0,0,0,129.81,47.74Z"/><line class="cls-6" x1="83.58" y1="102.04" x2="121.13" y2="107.49"/><path class="cls-7" d="M82.61,96.67a1.72,1.72,0,1,1-1.46-2A1.73,1.73,0,0,1,82.61,96.67Z"/><path class="cls-7" d="M91.15,97.91a1.73,1.73,0,1,1-1.46-2A1.74,1.74,0,0,1,91.15,97.91Z"/><path class="cls-7" d="M99.68,99.14a1.72,1.72,0,1,1-1.46-2A1.71,1.71,0,0,1,99.68,99.14Z"/><path class="cls-7" d="M108.22,100.38a1.73,1.73,0,1,1-1.46-1.95A1.72,1.72,0,0,1,108.22,100.38Z"/><path class="cls-7" d="M116.75,101.62a1.72,1.72,0,1,1-1.46-2A1.71,1.71,0,0,1,116.75,101.62Z"/><path class="cls-7" d="M87.87,90.46a1.72,1.72,0,1,1-1.46-2A1.73,1.73,0,0,1,87.87,90.46Z"/><path class="cls-7" d="M96.41,91.7a1.73,1.73,0,1,1-1.46-2A1.74,1.74,0,0,1,96.41,91.7Z"/><circle class="cls-7" cx="103.23" cy="92.69" r="1.73" transform="translate(-18.5 159.24) rotate(-70.58)"/><path class="cls-7" d="M113.48,94.18a1.73,1.73,0,1,1-1.46-2A1.72,1.72,0,0,1,113.48,94.18Z"/><path class="cls-7" d="M122,95.41a1.72,1.72,0,1,1-1.46-2A1.71,1.71,0,0,1,122,95.41Z"/><path class="cls-7" d="M125.29,102.86a1.73,1.73,0,1,1-1.46-2A1.72,1.72,0,0,1,125.29,102.86Z"/><path class="cls-8" d="M78.79,63l-.73,5a43.92,43.92,0,0,0,56.33,8.18l.73-5Z"/><rect class="cls-9" x="104.98" y="40.33" width="3.45" height="56.92" transform="translate(23.3 164.5) rotate(-81.74)"/><path class="cls-9" d="M78.68,63.73,78.06,68a43.92,43.92,0,0,0,56.33,8.18l.62-4.27a43.92,43.92,0,0,1-56.33-8.18Z"/><line class="cls-6" x1="76.06" y1="81.77" x2="132.39" y2="89.95"/><rect class="cls-4" x="101.04" y="26.62" width="13.8" height="67.27" transform="translate(32.81 158.42) rotate(-81.74)"/><rect class="cls-3" x="106.47" y="21.92" width="4.31" height="67.27" transform="matrix(0.14, -0.99, 0.99, 0.14, 38.04, 155.07)"/><line class="cls-6" x1="76.14" y1="45.18" x2="73.17" y2="65.66"/><line class="cls-6" x1="142.72" y1="54.84" x2="139.75" y2="75.33"/><path class="cls-4" d="M142.44,68.75l-1.7-.25,1-6.83,1.7.25a1.72,1.72,0,0,1,1.46,2l-.49,3.41A1.73,1.73,0,0,1,142.44,68.75Z"/><path class="cls-4" d="M74.16,58.83l-1.71-.24a1.74,1.74,0,0,1-1.46-2l.5-3.41a1.72,1.72,0,0,1,2-1.46l1.71.25Z"/><rect class="cls-6" x="101.04" y="26.62" width="13.8" height="67.27" transform="translate(32.81 158.42) rotate(-81.74)"/><path class="cls-6" d="M142.44,68.75l-1.7-.25,1-6.83,1.7.25a1.72,1.72,0,0,1,1.46,2l-.49,3.41A1.73,1.73,0,0,1,142.44,68.75Z"/><path class="cls-10" d="M74.16,58.83l-1.71-.24a1.74,1.74,0,0,1-1.46-2l.5-3.41a1.72,1.72,0,0,1,2-1.46l1.71.25Z"/><path class="cls-6" d="M78.79,63l-.73,5a43.92,43.92,0,0,0,56.33,8.18l.73-5Z"/><polyline class="cls-6" points="98.63 81.07 106.95 67.08 91.77 78.42"/><line class="cls-6" x1="83.35" y1="73.07" x2="106.95" y2="67.08"/><polyline class="cls-6" points="127.88 79.54 106.95 67.08 118.29 82.27"/><polyline class="cls-6" points="110.96 82.86 106.95 67.08 104.72 82.45"/><path class="cls-4" d="M89.62,72.41a7.76,7.76,0,1,1-6.57-8.8A7.78,7.78,0,0,1,89.62,72.41Z"/><path class="cls-3" d="M82.43,67.88A7.73,7.73,0,0,1,89,74.49a7.64,7.64,0,0,0,.65-2.08,7.76,7.76,0,1,0-15.36-2.23,7.57,7.57,0,0,0,0,2.18A7.75,7.75,0,0,1,82.43,67.88Z"/><path class="cls-4" d="M137.42,79.35a7.77,7.77,0,1,1-6.57-8.8A7.78,7.78,0,0,1,137.42,79.35Z"/><path class="cls-3" d="M130.23,74.82a7.73,7.73,0,0,1,6.54,6.61,7.64,7.64,0,0,0,.65-2.08,7.77,7.77,0,1,0-15.37-2.23,7.94,7.94,0,0,0,0,2.18A7.75,7.75,0,0,1,130.23,74.82Z"/><path class="cls-6" d="M89.62,72.41a7.76,7.76,0,1,1-6.57-8.8A7.78,7.78,0,0,1,89.62,72.41Z"/><path class="cls-6" d="M137.42,79.35a7.77,7.77,0,1,1-6.57-8.8A7.78,7.78,0,0,1,137.42,79.35Z"/><polygon class="cls-11" points="139.58 40.44 83.25 32.27 82.2 63.49 131.71 70.68 139.58 40.44"/><polygon class="cls-6" points="139.58 40.44 83.25 32.27 82.2 63.49 131.71 70.68 139.58 40.44"/><line class="cls-6" x1="88.59" y1="43.5" x2="100.54" y2="45.23"/><line class="cls-6" x1="92.97" y1="49.36" x2="130.52" y2="54.82"/><line class="cls-6" x1="88.81" y1="53.99" x2="128.07" y2="59.69"/><line class="cls-6" x1="88.06" y1="59.11" x2="127.33" y2="64.81"/><path class="cls-12" d="M83.91,63.74l3.41.49.74-5.12-1.7-.25a1.74,1.74,0,0,0-2,1.46Z"/><path class="cls-12" d="M126.58,69.93l3.42.5.49-3.42a1.72,1.72,0,0,0-1.46-2l-1.7-.25Z"/><rect class="cls-6" x="104.74" y="61.93" width="5.17" height="5.18" transform="translate(28.05 161.46) rotate(-81.74)"/><path class="cls-13" d="M141.79,46a1.71,1.71,0,0,0,1.89-2.25,5.18,5.18,0,0,0-4.1-3.3L83.25,32.27a5.15,5.15,0,0,0-4.87,2A1.72,1.72,0,0,0,79.55,37Z"/><path class="cls-6" d="M141.79,46a1.71,1.71,0,0,0,1.89-2.25,5.18,5.18,0,0,0-4.1-3.3L83.25,32.27a5.15,5.15,0,0,0-4.87,2A1.72,1.72,0,0,0,79.55,37Z"/><circle class="cls-2" cx="147.43" cy="120.73" r="12.07"/><path class="cls-14" d="M156.58,128.36a2.59,2.59,0,1,0,3.66-3.66L156,120.43l-3.66,3.66Z"/><circle class="cls-14" cx="147.43" cy="115.55" r="11.21"/><circle class="cls-15" cx="147.43" cy="115.55" r="7.76"/><path class="cls-16" d="M147.43,111.24a7.76,7.76,0,0,1,7.56,6,7.59,7.59,0,0,0,.21-1.73,7.77,7.77,0,0,0-15.53,0,7.59,7.59,0,0,0,.21,1.73A7.76,7.76,0,0,1,147.43,111.24Z"/><circle class="cls-6" cx="147.43" cy="115.55" r="7.76"/><path class="cls-17" d="M18.28,64.23h34.5A1.72,1.72,0,0,1,54.51,66v48.3A1.72,1.72,0,0,1,52.78,116H18.28a1.73,1.73,0,0,1-1.73-1.73V66A1.72,1.72,0,0,1,18.28,64.23Z" transform="translate(-9.8 4.51) rotate(-6.38)"/><path class="cls-17" d="M61.87,106.23a1.72,1.72,0,0,1-1,2.22L28.64,120.76a1.73,1.73,0,0,1-2.23-1L11,79.33l5.94-9.49,25.49-9.73a1.73,1.73,0,0,1,2.23,1Z"/><line class="cls-6" x1="25.8" y1="77.53" x2="42.88" y2="71.01"/><line class="cls-6" x1="18.94" y1="85.69" x2="44.73" y2="75.84"/><line class="cls-6" x1="20.79" y1="90.52" x2="46.57" y2="80.68"/><line class="cls-6" x1="22.64" y1="95.35" x2="48.42" y2="85.51"/><line class="cls-6" x1="24.48" y1="100.19" x2="50.27" y2="90.35"/><line class="cls-6" x1="26.33" y1="105.02" x2="52.11" y2="95.18"/><line class="cls-6" x1="28.17" y1="109.86" x2="53.96" y2="100.01"/><line class="cls-6" x1="30.02" y1="114.69" x2="55.8" y2="104.85"/><line class="cls-6" x1="24.92" y1="72.32" x2="41.04" y2="66.17"/><path class="cls-18" d="M37.84,80.48h1.73a1.73,1.73,0,0,1,1.73,1.73v27.6a1.73,1.73,0,0,1-1.73,1.73H37.84a1.73,1.73,0,0,1-1.73-1.73V82.21a1.72,1.72,0,0,1,1.72-1.72Z" transform="translate(-59.06 61.99) rotate(-48.86)"/><path class="cls-19" d="M27,85.79l23.38,20.43.57-.65a1.72,1.72,0,0,0-.16-2.43L30,85a1.72,1.72,0,0,0-2.43.16Z"/><line class="cls-6" x1="44.3" y1="97.46" x2="40.9" y2="101.36"/><path class="cls-6" d="M50.8,103.14a3.46,3.46,0,0,0-.33-4.87l-7.8-6.81"/><path class="cls-4" d="M23.36,86a2.59,2.59,0,1,0,3.4-3.9c-1.07-.94-5-.89-5-.89S22.28,85.1,23.36,86Z"/><path class="cls-3" d="M21.81,81.25s3.88,0,5,.89A2.58,2.58,0,0,1,27,85.79Z"/><path class="cls-6" d="M23.36,86a2.59,2.59,0,1,0,3.4-3.9c-1.07-.94-5-.89-5-.89S22.28,85.1,23.36,86Z"/><path class="cls-6" d="M37.84,80.48h1.73a1.73,1.73,0,0,1,1.73,1.73v27.6a1.73,1.73,0,0,1-1.73,1.73H37.84a1.73,1.73,0,0,1-1.73-1.73V82.21a1.72,1.72,0,0,1,1.72-1.72Z" transform="translate(-59.06 61.99) rotate(-48.86)"/><path class="cls-6" d="M80.72,138.11l2.38-2.86a6.89,6.89,0,0,1,6.49-2.39l25.85,4.48"/><path class="cls-6" d="M111,145.15l-.86-3.61a6.9,6.9,0,0,0-4.77-5l-25.17-7.39"/><path class="cls-20" d="M95.28,132.65a6.9,6.9,0,1,1-5.16-8.29A6.89,6.89,0,0,1,95.28,132.65Z"/><path class="cls-21" d="M82.7,134.73a6.9,6.9,0,1,1,11.72-7.29Z"/><path class="cls-20" d="M113.76,137a6.9,6.9,0,1,1-5.15-8.29A6.89,6.89,0,0,1,113.76,137Z"/><path class="cls-21" d="M101.18,139a6.9,6.9,0,0,1,11.72-7.29Z"/><path class="cls-6" d="M95.28,132.65a2.59,2.59,0,1,1,5,1.17"/><line class="cls-6" x1="81.84" y1="129.52" x2="80.16" y2="129.13"/><line class="cls-6" x1="115.44" y1="137.34" x2="113.76" y2="136.95"/><path class="cls-6" d="M95.28,132.65a6.9,6.9,0,1,1-5.16-8.29A6.89,6.89,0,0,1,95.28,132.65Z"/><path class="cls-6" d="M113.76,137a6.9,6.9,0,1,1-5.15-8.29A6.89,6.89,0,0,1,113.76,137Z"/><path class="cls-17" d="M16.92,69.84l2.74,4.82a1.73,1.73,0,0,1-1,2.52L11,79.33Z"/></g></svg>