<svg id="Multicolor" xmlns="http://www.w3.org/2000/svg" viewBox="0 0 100 112"><defs><style>.cls-1{fill:#e8f4fa;}.cls-18,.cls-2{fill:#fff;}.cls-17,.cls-26,.cls-3,.cls-7{fill:none;}.cls-3{stroke:#4f4a45;}.cls-10,.cls-20,.cls-21,.cls-24,.cls-27,.cls-28,.cls-3,.cls-32,.cls-7{stroke-linecap:round;}.cls-10,.cls-15,.cls-17,.cls-18,.cls-20,.cls-21,.cls-24,.cls-27,.cls-28,.cls-3,.cls-31,.cls-32,.cls-7{stroke-linejoin:round;}.cls-23,.cls-25,.cls-4{fill:#191816;}.cls-4{opacity:0.15;}.cls-5{fill:#656769;}.cls-6{fill:#87898c;}.cls-10,.cls-15,.cls-17,.cls-18,.cls-20,.cls-21,.cls-24,.cls-26,.cls-27,.cls-28,.cls-31,.cls-32,.cls-7{stroke:#191816;}.cls-10,.cls-8{fill:#ffcebf;}.cls-9{fill:#ffb59e;}.cls-11,.cls-28{fill:#00b8f0;}.cls-12{fill:#4acfff;}.cls-13{fill:#a86c4d;}.cls-14{fill:#de926a;}.cls-15{fill:#bdbec0;}.cls-16{fill:#f0f0f0;}.cls-19{fill:#ffdcd1;}.cls-20{fill:#ff6242;}.cls-21,.cls-22{fill:#ffe500;}.cls-24{fill:#ff8a14;}.cls-25,.cls-26{font-size:5.4px;font-family:VAGRoundedStd-Bold, VAG Rounded Std;font-weight:700;}.cls-26{stroke-width:0.15px;}.cls-27{fill:#9ceb60;}.cls-29,.cls-31{fill:#fffce5;}.cls-30{fill:#f7e5c6;}.cls-32{fill:#00dba8;}</style></defs><title>07- developer-macbook-stickerbomb</title><g id="Background"><g id="New_Symbol_53" data-name="New Symbol 53"><path class="cls-1" d="M90.34,56A40,40,0,1,0,13.9,72.5H86.77A39.7,39.7,0,0,0,90.34,56Z"/><path class="cls-2" d="M13.9,72.5a40,40,0,0,0,72.87,0Z"/><line class="cls-3" x1="11.34" y1="72.5" x2="89.34" y2="72.5"/><line class="cls-3" x1="6.84" y1="72.5" x2="9.34" y2="72.5"/><line class="cls-3" x1="91.34" y1="72.5" x2="93.84" y2="72.5"/></g></g><g id="Scene"><ellipse class="cls-4" cx="57.34" cy="82.75" rx="19" ry="1.75"/><path class="cls-5" d="M72.34,65a15.5,15.5,0,0,0-31,0v2.5h6v5h19v-5h6Z"/><path class="cls-6" d="M56.84,49.5A15.5,15.5,0,0,0,41.34,65v2.5h0a15.48,15.48,0,0,1,30.9,0h0V65A15.5,15.5,0,0,0,56.84,49.5Z"/><path class="cls-7" d="M72.34,65a15.5,15.5,0,0,0-31,0v2.5h6v5h19v-5h6Z"/><path class="cls-8" d="M53.34,50a3.5,3.5,0,0,0,7,0V46.5h-7Z"/><path class="cls-9" d="M53.34,50a12.26,12.26,0,0,0,7,0V46.5h-7Z"/><path class="cls-7" d="M53.34,50V46.5h7V50a3.5,3.5,0,0,1-7,0Z"/><path class="cls-10" d="M66.84,36V33.5a10,10,0,0,0-20,0V36a2,2,0,0,0,0,4H47a10,10,0,0,0,19.76,0h.12a2,2,0,0,0,0-4Z"/><path class="cls-11" d="M66.84,36.5a4.5,4.5,0,0,1-9,0V36a2,2,0,0,1,2-2h7Z"/><path class="cls-12" d="M59.84,34a2,2,0,0,0-2,2v.5A4.46,4.46,0,0,0,59.59,40l6-6Z"/><path class="cls-11" d="M55.84,36.5a4.5,4.5,0,0,1-9,0V34h7a2,2,0,0,1,2,2Z"/><path class="cls-12" d="M53.84,34h-7v2.5a4.47,4.47,0,0,0,1.86,3.63l6-6A2,2,0,0,0,53.84,34Z"/><path class="cls-7" d="M53.83,42.79a4.38,4.38,0,0,0,6,0"/><path class="cls-7" d="M55.84,36.5a4.5,4.5,0,0,1-9,0V34h7a2,2,0,0,1,2,2Z"/><path class="cls-7" d="M66.84,36.5a4.5,4.5,0,0,1-9,0V36a2,2,0,0,1,2-2h7Z"/><line class="cls-7" x1="55.84" y1="36.5" x2="57.84" y2="36.5"/><path class="cls-13" d="M56.84,22s1-1,4-1c10.46,0,11.88,14.92,4.25,16.38A1,1,0,0,1,64,36.32c.75-10-6.16-9.25-7.12-7.32-1-1.93-7.87-2.66-7.12,7.32a1,1,0,0,1-1.14,1.06C41,35.92,42.38,21,52.84,21,55.84,21,56.84,22,56.84,22Z"/><path class="cls-14" d="M52.84,24.5c3,0,4,1,4,1s1-1,4-1c5.26,0,8.23,3.78,8.91,7.72C70.66,27.39,67.69,21,60.84,21c-3,0-4,1-4,1s-1-1-4-1C46,21,43,27.39,43.92,32.22,44.61,28.28,47.57,24.5,52.84,24.5Z"/><path class="cls-7" d="M56.84,22s1-1,4-1c10.46,0,11.88,14.92,4.25,16.38A1,1,0,0,1,64,36.32c.75-10-6.16-9.25-7.12-7.32-1-1.93-7.87-2.66-7.12,7.32a1,1,0,0,1-1.14,1.06C41,35.92,42.38,21,52.84,21,55.84,21,56.84,22,56.84,22Z"/><path class="cls-7" d="M62.84,37a1.63,1.63,0,0,0-3,0"/><path class="cls-7" d="M53.85,37a1.63,1.63,0,0,0-3,0"/><path class="cls-15" d="M73.5,79.5H40.18L40.6,81a1.35,1.35,0,0,0,1.3,1H71.78a1.35,1.35,0,0,0,1.3-1Z"/><path class="cls-16" d="M40.84,56.5h32a2,2,0,0,1,2,2V78.41a1.09,1.09,0,0,1-1.09,1.09H39.93a1.09,1.09,0,0,1-1.09-1.09V58.5A2,2,0,0,1,40.84,56.5Z"/><path class="cls-2" d="M72.84,56.5h-32a2,2,0,0,0-2,2v4.85c0-.72.58-2.35,1.3-2.35H73.53c.72,0,1.31,1.63,1.31,2.35V58.5A2,2,0,0,0,72.84,56.5Z"/><path class="cls-17" d="M40.84,56.5h32a2,2,0,0,1,2,2V78.41a1.09,1.09,0,0,1-1.09,1.09H39.93a1.09,1.09,0,0,1-1.09-1.09V58.5A2,2,0,0,1,40.84,56.5Z"/><path class="cls-18" d="M59.25,69.94a2.13,2.13,0,0,1,.69-1.6,1.54,1.54,0,0,0-1.14-.94,1.76,1.76,0,0,0-1.61,1,1.75,1.75,0,0,0-1.6-1c-1,.12-1.63,1.46-1.45,3s1.13,2.7,2.12,2.58a1.39,1.39,0,0,0,.93-.59,1.38,1.38,0,0,0,.94.59c.72.09,1.42-.51,1.81-1.45A2.13,2.13,0,0,1,59.25,69.94Z"/><path class="cls-18" d="M58.44,64.26a2.05,2.05,0,0,0-.73,1.61,2.06,2.06,0,0,0,1.71-.43,2,2,0,0,0,.73-1.61A2.08,2.08,0,0,0,58.44,64.26Z"/><path class="cls-8" d="M74.83,69.5l2.44,0a1.5,1.5,0,0,1,1.52,1.48l0,3a1.5,1.5,0,0,1-1.48,1.52l-2.44,0a2,2,0,0,1-2-1.65,10.14,10.14,0,0,1,0-2.64A2,2,0,0,1,74.83,69.5Z"/><path class="cls-19" d="M74.8,71.41l2.51,0a1.53,1.53,0,0,1,1.5,1.1l0-1.53a1.5,1.5,0,0,0-1.52-1.48l-2.44,0a2,2,0,0,0-2,1.71,11.85,11.85,0,0,0,0,1.69A2,2,0,0,1,74.8,71.41Z"/><path class="cls-7" d="M74.83,69.5l2.44,0a1.5,1.5,0,0,1,1.52,1.48l0,3a1.5,1.5,0,0,1-1.48,1.52l-2.44,0a2,2,0,0,1-2-1.65,10.14,10.14,0,0,1,0-2.64A2,2,0,0,1,74.83,69.5Z"/><path class="cls-8" d="M40.22,65.47l-2.43-.09a1.5,1.5,0,0,1-1.45-1.55l.1-3A1.51,1.51,0,0,1,38,59.38l2.44.09a2,2,0,0,1,1.92,1.74,10.68,10.68,0,0,1-.09,2.65A2,2,0,0,1,40.22,65.47Z"/><path class="cls-19" d="M40.35,63.56l-2.51-.09a1.54,1.54,0,0,1-1.45-1.17l0,1.53a1.5,1.5,0,0,0,1.45,1.55l2.44.09a2,2,0,0,0,2-1.61,10.51,10.51,0,0,0,.12-1.69A2,2,0,0,1,40.35,63.56Z"/><path class="cls-7" d="M40.22,65.47l-2.43-.09a1.5,1.5,0,0,1-1.45-1.55l.1-3A1.51,1.51,0,0,1,38,59.38l2.44.09a2,2,0,0,1,1.92,1.74,10.68,10.68,0,0,1-.09,2.65A2,2,0,0,1,40.22,65.47Z"/><path class="cls-20" d="M50,73.12l-2.07,3.1a.5.5,0,0,0,.42.78h4.13a.5.5,0,0,0,.42-.78l-2.07-3.1A.5.5,0,0,0,50,73.12Z"/><path class="cls-21" d="M46.38,69.5,49,71a3,3,0,1,1,0-3Z"/><circle class="cls-22" cx="49.88" cy="69.5" r="0.5"/><path class="cls-23" d="M49.88,69a.5.5,0,1,0,0,1,.5.5,0,0,0,0-1Z"/><circle class="cls-22" cx="51.88" cy="69.5" r="0.5"/><path class="cls-23" d="M51.88,69a.5.5,0,1,0,0,1,.5.5,0,0,0,0-1Z"/><path class="cls-24" d="M68.62,74.63l-2,1.22a.53.53,0,0,1-.52,0l-2-1.22a.47.47,0,0,1-.24-.38l-.43-4.7a.5.5,0,0,1,.5-.55h4.9a.5.5,0,0,1,.5.55l-.43,4.7A.47.47,0,0,1,68.62,74.63Z"/><text class="cls-25" transform="translate(57.41 61.95) rotate(12.83)"><tspan xml:space="preserve">N    DE</tspan></text><text class="cls-26" transform="translate(57.41 61.95) rotate(12.83)"><tspan xml:space="preserve">N    DE</tspan></text><polygon class="cls-27" points="62.44 60.03 64.61 59.5 66.34 60.92 65.78 63.36 63.61 63.89 61.88 62.47 62.44 60.03"/><ellipse class="cls-28" cx="50.38" cy="62" rx="5.5" ry="2"/><path class="cls-7" d="M30.33,50.92c-1.2,1.21,1.81,3,1.81,4.82,0,1.34-1.81,1.8-1.81,3"/><path class="cls-7" d="M26.12,48.52c-1.2,1.2,1.8,3,1.8,4.81,0,1.35-1.8,1.81-1.8,3"/><ellipse class="cls-4" cx="27.34" cy="78.75" rx="5.5" ry="1.75"/><path class="cls-29" d="M30,78H24.73a1,1,0,0,1-1-.88L22.34,65.5h10l-1.4,11.62A1,1,0,0,1,30,78Z"/><polygon class="cls-30" points="22.52 67 32.16 67 32.34 65.5 22.34 65.5 22.52 67"/><path class="cls-17" d="M30,78H24.73a1,1,0,0,1-1-.88L22.34,65.5h10l-1.4,11.62A1,1,0,0,1,30,78Z"/><path class="cls-31" d="M32.34,65.5h-10a1,1,0,0,1-1-1h0a1,1,0,0,1,1-1h10a1,1,0,0,1,1,1h0A1,1,0,0,1,32.34,65.5Z"/><path class="cls-31" d="M32.34,63.5h-10l.42-1.73a1,1,0,0,1,1-.77H31a1,1,0,0,1,1,.77Z"/><path class="cls-32" d="M29.61,70.78a2.28,2.28,0,1,1-2.27-2.28A2.27,2.27,0,0,1,29.61,70.78Z"/></g></svg>