<svg id="Multicolor" xmlns="http://www.w3.org/2000/svg" viewBox="0 0 100 112"><defs><style>.cls-1{fill:#e8f4fa;}.cls-2,.cls-6{fill:#fff;}.cls-3{fill:none;}.cls-17,.cls-19,.cls-3,.cls-4,.cls-5,.cls-6,.cls-8{stroke:#191816;stroke-linejoin:round;}.cls-17,.cls-3,.cls-4,.cls-5,.cls-6,.cls-8{stroke-linecap:round;}.cls-15,.cls-4{fill:#656769;}.cls-13,.cls-19,.cls-5{fill:#ff6242;}.cls-12,.cls-7{fill:#191816;}.cls-8{fill:#ffda8f;}.cls-9{fill:#ffbe3d;}.cls-10{fill:#614b44;}.cls-11{fill:#947063;}.cls-12{opacity:0.15;}.cls-14{fill:#e04122;}.cls-16,.cls-17{fill:#525252;}.cls-18{fill:#87898c;}</style></defs><title>78- magician-male-asian-2</title><g id="Background"><g id="New_Symbol_58-25" data-name="New Symbol 58"><path class="cls-1" d="M90.5,56A40,40,0,1,0,14.06,72.5H86.93A39.86,39.86,0,0,0,90.5,56Z"/><path class="cls-2" d="M14.06,72.5a40,40,0,0,0,72.87,0Z"/><line class="cls-3" x1="11" y1="72.5" x2="89" y2="72.5"/><line class="cls-3" x1="6.5" y1="72.5" x2="9" y2="72.5"/><line class="cls-3" x1="91" y1="72.5" x2="93.5" y2="72.5"/></g></g><g id="Scene"><path class="cls-4" d="M57.2,61.61a1.18,1.18,0,0,0,1.15.36c.81-.18,1.75-.34,2.77-.48l-.64,11.89a1.38,1.38,0,0,0,1.38,1.46h9.5a1.39,1.39,0,0,0,1.38-1.46l-.65-11.89c1,.14,2,.3,2.78.48A1.18,1.18,0,0,0,76,61.61a.9.9,0,0,0,.25-.57c0-.86-1.68-1.63-4.32-2.14a20,20,0,0,0-5.34-.62,20,20,0,0,0-5.34.62C58.63,59.41,57,60.18,57,61A.9.9,0,0,0,57.2,61.61Z"/><path class="cls-5" d="M72.09,61.49A25.06,25.06,0,0,0,66.61,61a25.28,25.28,0,0,0-5.49.45L61,63.8H72.22Z"/><path class="cls-6" d="M65,45.31A2.07,2.07,0,0,0,61,46.57l2.95,7,2.63-.83Z"/><path class="cls-6" d="M68.25,45.31a2.07,2.07,0,1,1,3.94,1.26l-3,7-2.63-.83Z"/><circle class="cls-6" cx="66.61" cy="54.14" r="4.14"/><path class="cls-7" d="M66.61,54.83a.69.69,0,1,0,.69.69.69.69,0,0,0-.69-.69Z"/><path class="cls-8" d="M47.76,33.84a1.42,1.42,0,0,0-1.15-1.38v-.92a6.9,6.9,0,0,0-13.8,0v.92A1.41,1.41,0,0,0,33,35.25a6.9,6.9,0,0,0,13.51,0A1.43,1.43,0,0,0,47.76,33.84Z"/><circle class="cls-9" cx="35.97" cy="34.7" r="0.86"/><circle class="cls-9" cx="43.45" cy="34.7" r="0.86"/><path class="cls-3" d="M42.82,32.69a1,1,0,0,0-1.39,0"/><path class="cls-3" d="M36.6,32.69a1,1,0,0,1,1.38,0"/><path class="cls-3" d="M41.43,36.72a2.9,2.9,0,0,1-3.45,0"/><path class="cls-10" d="M47.18,27.88a5.54,5.54,0,0,0-5.53-5.54h-7a1.15,1.15,0,0,0-.71,2.05l.59.47a3.46,3.46,0,0,0-2.26,3.23v3.45a.58.58,0,0,0,.58.58C34,31.39,36,29.61,36.23,28.2a.34.34,0,0,1,.42-.26,1.88,1.88,0,0,1,1.58,1.61.35.35,0,0,0,.45.26A3.74,3.74,0,0,0,41,28.18a.32.32,0,0,1,.38-.22c3,.94,2,3.73,5.22,4a.59.59,0,0,0,.44-.15.57.57,0,0,0,.19-.42Z"/><path class="cls-11" d="M41.65,22.34h-7a1.15,1.15,0,0,0-.71,2.05l.37.3a1.27,1.27,0,0,1,.34-.05h7a5.54,5.54,0,0,1,5.53,5.54v-2.3A5.54,5.54,0,0,0,41.65,22.34Z"/><path class="cls-3" d="M47.18,27.88a5.54,5.54,0,0,0-5.53-5.54h-7a1.15,1.15,0,0,0-.71,2.05l.59.47a3.46,3.46,0,0,0-2.26,3.23v3.45a.58.58,0,0,0,.58.58C34,31.39,36,29.61,36.23,28.2a.34.34,0,0,1,.42-.26,1.88,1.88,0,0,1,1.58,1.61.35.35,0,0,0,.45.26A3.74,3.74,0,0,0,41,28.18a.32.32,0,0,1,.38-.22c3,.94,2,3.73,5.22,4a.59.59,0,0,0,.44-.15.57.57,0,0,0,.19-.42Z"/><ellipse class="cls-12" cx="39.7" cy="87.03" rx="11.5" ry="1.73"/><path class="cls-13" d="M43.84,44.48,56.31,74.66a1.16,1.16,0,0,1-1,1.59c-8.09.53-5.53,6.61-15.59,6.18-10.06.43-7.5-5.65-15.59-6.18a1.16,1.16,0,0,1-1-1.59L35.56,44.48Z"/><path class="cls-14" d="M35.56,44.48,28.84,60.75A9.54,9.54,0,0,0,31,63.12a1.18,1.18,0,0,1,.45.84l1.07,16.87c1.45,1,3.44,1.76,7.18,1.6,3.74.16,5.73-.58,7.18-1.6l1-15.55a1.16,1.16,0,0,1,1.62-1,9.55,9.55,0,0,0,2.87.8L43.84,44.48Z"/><path class="cls-3" d="M43.84,44.48,56.31,74.66a1.16,1.16,0,0,1-1,1.59c-8.09.53-5.53,6.61-15.59,6.18-10.06.43-7.5-5.65-15.59-6.18a1.16,1.16,0,0,1-1-1.59L35.56,44.48Z"/><polygon class="cls-15" points="33.49 63.11 34.87 85.19 44.53 85.19 45.91 63.11 33.49 63.11"/><polygon class="cls-16" points="45.35 72.08 45.91 63.11 33.49 63.11 34.05 72.08 45.35 72.08"/><line class="cls-3" x1="39.7" y1="63.11" x2="39.7" y2="85.19"/><polygon class="cls-3" points="33.49 63.11 34.87 85.19 44.53 85.19 45.91 63.11 33.49 63.11"/><path class="cls-15" d="M53.5,59a3.46,3.46,0,0,1-3.45-3.45V53.45a10.35,10.35,0,1,0-20.7,0v2.07a7.6,7.6,0,0,0,4.14,6.75v6.36H45.91V55.52a7.6,7.6,0,0,0,7.59,7.59h2.07V59Z"/><path class="cls-17" d="M35,85.88a1.16,1.16,0,0,1-1-1.73,3.45,3.45,0,0,1,3-1.72,2.76,2.76,0,0,1,2.76,2.76v.69Z"/><path class="cls-17" d="M44.45,85.88a1.16,1.16,0,0,0,1-.58,1.18,1.18,0,0,0,0-1.15,3.45,3.45,0,0,0-3-1.72,2.75,2.75,0,0,0-2.76,2.76v.69Z"/><path class="cls-18" d="M39.7,43.1A10.35,10.35,0,0,0,29.35,53.45v2.07h0a10.35,10.35,0,0,1,20.6,0h0V53.45A10.35,10.35,0,0,0,39.7,43.1Z"/><path class="cls-3" d="M53.5,59a3.46,3.46,0,0,1-3.45-3.45V53.45a10.35,10.35,0,1,0-20.7,0v2.07a7.6,7.6,0,0,0,4.14,6.75v6.36H45.91V55.52a7.6,7.6,0,0,0,7.59,7.59h2.07V59Z"/><path class="cls-6" d="M35.11,44.17h0l4,14.79h.57V61h0l4.58-16.86h0a10.36,10.36,0,0,0-9.17,0Z"/><line class="cls-3" x1="39.7" y1="43.1" x2="39.7" y2="68.63"/><path class="cls-3" d="M31.9,46.64l2.28,2.28v3.45l4.2,6.6h.75l-4-14.8A10.37,10.37,0,0,0,31.9,46.64Z"/><path class="cls-3" d="M44.29,44.17,39.7,61l5.52-8.67V48.92l2.28-2.27A10.25,10.25,0,0,0,44.29,44.17Z"/><path class="cls-3" d="M33.49,62.27a7.58,7.58,0,0,0,3.45.84H39.7V59H36.94a3.46,3.46,0,0,1-3.45-3.45v-.69"/><path class="cls-6" d="M41.77,63.11a2.07,2.07,0,0,0,0-4.14H39.7v4.14Z"/><line class="cls-4" x1="45.91" y1="55.52" x2="45.91" y2="54.83"/><path class="cls-6" d="M57.64,63.11a2.07,2.07,0,0,0,0-4.14H55.57v4.14Z"/><path class="cls-19" d="M39.7,44.48,39,43.9a6.1,6.1,0,0,0-2.78-1.36,1.15,1.15,0,0,0-1.38,1.13v1.61a1.15,1.15,0,0,0,.42.9,1.18,1.18,0,0,0,1,.23A6,6,0,0,0,39,45.05Z"/><path class="cls-19" d="M39.7,44.48l.67-.58a6.1,6.1,0,0,1,2.78-1.36,1.15,1.15,0,0,1,1,.24,1.18,1.18,0,0,1,.42.89v1.61a1.14,1.14,0,0,1-1.38,1.13,6,6,0,0,1-2.78-1.36Z"/><circle class="cls-19" cx="39.7" cy="44.48" r="1.38"/></g></svg>