<svg id="Multicolor" xmlns="http://www.w3.org/2000/svg" xmlns:xlink="http://www.w3.org/1999/xlink" viewBox="0 0 100 112"><defs><style>.cls-1,.cls-14,.cls-19,.cls-5,.cls-7,.cls-9{fill:none;}.cls-2{fill:#e8f4fa;}.cls-3{fill:#debb7e;}.cls-4{fill:#f0d5a8;}.cls-15,.cls-17,.cls-19,.cls-20,.cls-23,.cls-5,.cls-6,.cls-7,.cls-9{stroke:#191816;}.cls-15,.cls-5,.cls-6,.cls-7{stroke-miterlimit:10;}.cls-20,.cls-6,.cls-8{fill:#fff;}.cls-14,.cls-20,.cls-23,.cls-7,.cls-9{stroke-linecap:round;}.cls-14,.cls-17,.cls-19,.cls-20,.cls-23,.cls-9{stroke-linejoin:round;}.cls-10{fill:#191816;opacity:0.15;}.cls-11,.cls-15{fill:#ffb59e;}.cls-12{fill:#ffcebf;}.cls-13{fill:#ffdcd1;}.cls-14{stroke:#ff6242;}.cls-16{clip-path:url(#clip-path);}.cls-17{fill:#009fd9;}.cls-18{fill:#00b8f0;}.cls-21{fill:#ff6242;}.cls-22{fill:#ff866e;}.cls-23{fill:#ffe500;}.cls-24{fill:#daedf7;}</style><clipPath id="clip-path"><circle class="cls-1" cx="50.5" cy="56" r="40"/></clipPath></defs><title>06- clipboard-document-signature-hand</title><g id="Background"><g id="New_Symbol_36-6" data-name="New Symbol 36"><circle class="cls-2" cx="50.5" cy="56" r="40"/></g></g><g id="Scene"><rect class="cls-3" x="35" y="36" width="30.5" height="38.5" rx="2" ry="2"/><path class="cls-4" d="M63.5,36H37a2,2,0,0,0-2,2v2.5a2,2,0,0,1,2-2H63.5a2,2,0,0,1,2,2V38A2,2,0,0,0,63.5,36Z"/><rect class="cls-5" x="35" y="36" width="30.5" height="38.5" rx="2" ry="2"/><rect class="cls-6" x="38" y="39" width="24.5" height="32.5" rx="1" ry="1"/><line class="cls-7" x1="41.49" y1="47" x2="56.77" y2="47"/><line class="cls-7" x1="41.49" y1="51.5" x2="56.77" y2="51.5"/><line class="cls-7" x1="41.49" y1="56.5" x2="52.14" y2="56.5"/><rect class="cls-2" x="42.5" y="34.5" width="15.5" height="6.5" rx="1" ry="1"/><path class="cls-8" d="M57,34.5H43.5a1,1,0,0,0-1,1v2a1,1,0,0,1,1-1H57a1,1,0,0,1,1,1v-2A1,1,0,0,0,57,34.5Z"/><rect class="cls-9" x="42.5" y="34.5" width="15.5" height="6.5" rx="1" ry="1"/><line class="cls-9" x1="46" y1="39" x2="54.5" y2="39"/><circle class="cls-2" cx="50.5" cy="34" r="2.5"/><path class="cls-8" d="M50.5,33.5A2.51,2.51,0,0,1,52.79,35,2.56,2.56,0,0,0,53,34a2.5,2.5,0,0,0-5,0,2.56,2.56,0,0,0,.21,1A2.51,2.51,0,0,1,50.5,33.5Z"/><circle class="cls-9" cx="50.5" cy="34" r="2.5"/><path class="cls-10" d="M62.5,50.13l-7.11,7.71a2.49,2.49,0,0,0,.14,3.53A2.34,2.34,0,0,0,56.6,62l-2.31,2.32.36.35-3.13,3.13a1,1,0,0,0-.22,1.09,1,1,0,0,0,.92.62.76.76,0,0,0,.21,0c2.74-.58,4.13-1.42,4.15-2.5l.19-.19.7.71,1.75-1.75a2.48,2.48,0,0,0,.4.26,2.4,2.4,0,0,0,1.17.3,2.49,2.49,0,0,0,1.71-.68Z"/><polygon class="cls-11" points="62.87 53.91 73.37 57.82 77.79 50.74 66.37 47.66 62.87 53.91"/><path class="cls-12" d="M79.61,65.86l8.13-8.13.1-.09c-2.72-2.36-3.39-7.36-8.63-10.1-6.89-3.6-15.41-2.74-22.9,6.61a2,2,0,0,0,3.12,2.51c.49-.61,1-1.18,1.49-1.71a2,2,0,0,0,.62.44c7.83,5.93,9.41,6.69,11.33,7.43,3,1.16,4.27,1.71,6.45,3.68A1,1,0,0,1,79.61,65.86ZM74.24,53.2a4.43,4.43,0,0,1-5.57,1L64,52.14a11.12,11.12,0,0,1,8.14-2.45C74.49,50,75,52,74.24,53.2Z"/><path class="cls-13" d="M86.26,59.21l1.48-1.48.1-.09c-2.72-2.36-3.39-7.36-8.63-10.1-6.89-3.6-15.41-2.74-22.9,6.61a2,2,0,0,0,0,2.52,2,2,0,0,1,.2-.31c7.49-9.35,15.3-10,22.25-6.47C81.08,51.05,84.18,56.49,86.26,59.21Z"/><ellipse class="cls-10" cx="50.06" cy="82.8" rx="13" ry="1.5"/><path class="cls-14" d="M43,61.7a2.22,2.22,0,1,0,3.79,1.57v.44a1.78,1.78,0,1,0,3.56,0,1.78,1.78,0,0,0,1.78,1.78h1.33"/><path class="cls-15" d="M68,54.73a2,2,0,0,1,1.89,2.1l-.35,6.49a2,2,0,1,1-4-.22l.35-6.49A2,2,0,0,1,68,54.73Z"/><path class="cls-15" d="M66,54.1a2,2,0,0,1,.82,2.71l-2.39,4.64a2,2,0,0,1-2.7.83,2,2,0,0,1-.83-2.71l2.39-4.64A2,2,0,0,1,66,54.1Z"/><g class="cls-16"><rect class="cls-17" x="83.49" y="61.73" width="15.75" height="15.5" rx="1" ry="1" transform="translate(106.84 183.22) rotate(-135)"/><path class="cls-18" d="M90.57,59.14a1,1,0,0,1,1.41,0l9.73,9.73a1,1,0,0,1,0,1.41l-1.06,1.06L89.51,60.2Z"/><rect class="cls-19" x="83.49" y="61.73" width="15.75" height="15.5" rx="1" ry="1" transform="translate(106.84 183.22) rotate(-135)"/><path class="cls-20" d="M84.24,56.1h2a0,0,0,0,1,0,0V69.6a0,0,0,0,1,0,0h-2a1,1,0,0,1-1-1V57.1A1,1,0,0,1,84.24,56.1Z" transform="translate(69.26 -41.51) rotate(45)"/><path class="cls-9" d="M79.61,65.86l8.13-8.13.1-.09c-2.72-2.36-3.39-7.36-8.63-10.1-6.89-3.6-15.41-2.74-22.9,6.61a2,2,0,0,0,3.12,2.51c.49-.61,1-1.18,1.49-1.71a2,2,0,0,0,.62.44c7.83,5.93,9.41,6.69,11.33,7.43,3,1.16,4.27,1.71,6.45,3.68A1,1,0,0,1,79.61,65.86ZM74.24,53.2a4.43,4.43,0,0,1-5.57,1L64,52.14a11.12,11.12,0,0,1,8.14-2.45C74.49,50,75,52,74.24,53.2Z"/><path class="cls-20" d="M84.24,56.1h2a0,0,0,0,1,0,0V69.6a0,0,0,0,1,0,0h-2a1,1,0,0,1-1-1V57.1A1,1,0,0,1,84.24,56.1Z" transform="translate(69.26 -41.51) rotate(45)"/></g><path class="cls-21" d="M76.1,42.29h0a2.25,2.25,0,0,1,2.25,2.25v9.75a0,0,0,0,1,0,0h-4.5a0,0,0,0,1,0,0V44.54a2.25,2.25,0,0,1,2.25-2.25Z" transform="translate(71.4 -41.72) rotate(54.61)"/><path class="cls-22" d="M81,44.84l0,0h0a2.25,2.25,0,0,0-3.14-.54l-7.94,5.65,1.25,1.77Z"/><path class="cls-9" d="M76.1,42.29h0a2.25,2.25,0,0,1,2.25,2.25v9.75a0,0,0,0,1,0,0h-4.5a0,0,0,0,1,0,0V44.54a2.25,2.25,0,0,1,2.25-2.25Z" transform="translate(71.4 -41.72) rotate(54.61)"/><path class="cls-9" d="M70.26,47.84,76,43.79a1.47,1.47,0,0,1,2.09.35"/><path class="cls-23" d="M57.14,60.23l-4,2.85a.49.49,0,0,0,.3.9c1.68-.07,4.09-.37,4-1.54l.82-.58Z"/><path class="cls-24" d="M58.59,62.26l-1.45-2a.5.5,0,0,1,.12-.7l2-1.45,2,2.86-2,1.44A.49.49,0,0,1,58.59,62.26Z"/><path class="cls-2" d="M60.2,59.35l-.91-1.27-2,1.45a.5.5,0,0,0-.12.7l.59.84Z"/><path class="cls-9" d="M58.59,62.26l-1.45-2a.5.5,0,0,1,.12-.7l2-1.45,2,2.86-2,1.44A.49.49,0,0,1,58.59,62.26Z"/><path class="cls-21" d="M61,60.53l-1.45-2a1,1,0,0,1,.24-1.39l10.09-7.17,2.6,3.67L62.43,60.76A1,1,0,0,1,61,60.53Z"/><path class="cls-22" d="M60.2,59.35l11-7.65-1.25-1.77L59.82,57.1a1,1,0,0,0-.24,1.39Z"/><path class="cls-9" d="M61,60.53l-1.45-2a1,1,0,0,1,.24-1.39l10.09-7.17,2.6,3.67L62.43,60.76A1,1,0,0,1,61,60.53Z"/><path class="cls-12" d="M74.24,53.2a4.43,4.43,0,0,1-5.57,1l-5.47-2.5a2,2,0,0,0-2.65,1,2,2,0,0,0,1,2.65c7.83,5.93,9.41,6.69,11.33,7.43"/><path class="cls-13" d="M63.83,54.38l5.46,2.5a3.35,3.35,0,0,0,4.79-2.53l.16-1.15a4.43,4.43,0,0,1-5.57,1l-5.47-2.5a2,2,0,0,0-1.94,3.48A2,2,0,0,1,63.83,54.38Z"/><path class="cls-9" d="M74.24,53.2a4.43,4.43,0,0,1-5.57,1l-5.47-2.5a2,2,0,0,0-2.65,1,2,2,0,0,0,1,2.65c7.83,5.93,9.41,6.69,11.33,7.43"/><path class="cls-12" d="M74.24,53.2a4.43,4.43,0,0,1-5.57,1l-5.47-2.5a2,2,0,0,0-2.65,1,2,2,0,0,0,1,2.65c7.83,5.93,9.41,6.69,11.33,7.43"/><path class="cls-13" d="M63.83,54.38l5.46,2.5a3.35,3.35,0,0,0,4.79-2.53l.16-1.15a4.43,4.43,0,0,1-5.57,1l-5.47-2.5a2,2,0,0,0-1.94,3.48A2,2,0,0,1,63.83,54.38Z"/><path class="cls-9" d="M74.24,53.2a4.43,4.43,0,0,1-5.57,1l-5.47-2.5a2,2,0,0,0-2.65,1,2,2,0,0,0,1,2.65c7.83,5.93,9.41,6.69,11.33,7.43"/></g></svg>